<svg width="127.000000" height="127.000000" viewBox="0 0 127 127" fill="none" xmlns="http://www.w3.org/2000/svg" xmlns:xlink="http://www.w3.org/1999/xlink">
	<desc>
			Created with Pixso.
	</desc>
	<defs>
		<clipPath id="clip1_35">
			<rect id="goodie1" width="127.000000" height="127.000000" fill="white" fill-opacity="0"/>
		</clipPath>
	</defs>
	<rect id="goodie1" width="127.000000" height="127.000000" fill="#FCA363" fill-opacity="0"/>
	<g clip-path="url(#clip1_35)">
		<path id="Vector" d="M127.207 63.4322C127.207 98.5023 98.7774 126.932 63.7073 126.932C28.6373 126.932 0.207336 98.5023 0.207336 63.4322C0.207336 28.3622 28.6373 -0.067749 63.7073 -0.067749C98.7774 -0.067749 127.207 28.3622 127.207 63.4322Z" fill="#FAD34F" fill-opacity="1.000000" fill-rule="evenodd"/>
		<path id="Vector" d="M80.8142 83.1596C80.8142 87.7062 77.127 83.1596 72.5761 83.1596C68.0295 83.1596 64.3381 87.7062 64.3381 83.1596C64.3381 78.613 68.0253 74.9215 72.5761 74.9215C77.127 74.9215 80.8142 78.6087 80.8142 83.1596Z" fill="#FFFFFF" fill-opacity="1.000000" fill-rule="nonzero"/>
		<path id="Vector" d="M106.752 83.1596C106.752 87.7062 103.065 83.1596 98.5138 83.1596C93.9672 83.1596 90.2758 87.7062 90.2758 83.1596C90.2758 78.613 93.963 74.9215 98.5138 74.9215C103.065 74.9215 106.752 78.6087 106.752 83.1596Z" fill="#FFFFFF" fill-opacity="1.000000" fill-rule="nonzero"/>
		<path id="Vector" d="M98.4969 100.614C98.4969 108.979 91.7151 115.756 83.3543 115.756C74.9935 115.756 68.2117 108.974 68.2117 100.614C68.2117 92.2528 74.9935 101.198 83.3543 101.198C91.7151 101.198 98.4969 92.2528 98.4969 100.614Z" fill="#FFFFFF" fill-opacity="1.000000" fill-rule="nonzero"/>
	</g>
</svg>
