<svg width="126.760010" height="16.086365" viewBox="0 0 126.76 16.0864" fill="none" xmlns="http://www.w3.org/2000/svg" xmlns:xlink="http://www.w3.org/1999/xlink">
	<desc>
			Created with Pixso.
	</desc>
	<defs/>
	<path id="Vector" d="M2.88052 14.2365L0.212524 14.2365L0.212524 5.59094L2.88052 5.59094L2.88052 14.2365ZM1.54507 4.41162C0.692139 4.41162 0 3.70056 0 2.84207C0 1.98361 0.692139 1.28699 1.54507 1.28699C2.39804 1.28699 3.09018 1.98361 3.09018 2.84207C3.09018 3.70056 2.39804 4.41162 1.54507 4.41162ZM12.8661 14.2365L10.2039 14.2365L10.2039 10.0279C10.2039 9.02487 10.1838 7.73859 8.81677 7.73859C7.42963 7.73859 7.2171 8.82831 7.2171 9.95563L7.2171 14.2365L4.55197 14.2365L4.55197 5.59094L7.11084 5.59094L7.11084 6.77026L7.14819 6.77026C7.5043 6.091 8.37448 5.37418 9.67261 5.37418C12.3722 5.37418 12.869 7.16339 12.869 9.48737L12.869 14.2365L12.8661 14.2365Z" fill="#696969" fill-opacity="1.000000" fill-rule="nonzero"/>
	<path id="Vector" d="M53.0399 4.49417C53.0501 4.63492 53.0501 4.7757 53.0501 4.91644C53.0501 9.20947 49.7328 14.156 43.6698 14.156C41.8019 14.156 40.0667 13.6231 38.6071 12.6982C38.8725 12.7284 39.1277 12.7384 39.4033 12.7384C40.9445 12.7384 42.3633 12.2257 43.4963 11.351C42.0469 11.3208 40.8322 10.3858 40.4138 9.09888C40.6179 9.12903 40.8221 9.14914 41.0364 9.14914C41.3324 9.14914 41.6284 9.10892 41.904 9.03857C40.3934 8.73694 39.2603 7.42993 39.2603 5.85147L39.2603 5.81128C39.6992 6.05255 40.2096 6.20337 40.7505 6.22345C39.8625 5.64032 39.2808 4.64499 39.2808 3.51895C39.2808 2.91571 39.4441 2.36273 39.7299 1.88016C41.3528 3.85074 43.7923 5.1376 46.5278 5.27838C46.4767 5.03708 46.4461 4.78577 46.4461 4.53442C46.4461 2.74478 47.9159 1.28699 49.743 1.28699C50.6922 1.28699 51.5496 1.67908 52.1519 2.3125C52.8969 2.17175 53.6115 1.90027 54.2443 1.52829C53.9993 2.28235 53.4788 2.91574 52.7949 3.31787C53.4584 3.24753 54.1014 3.06653 54.6934 2.81519C54.2444 3.45862 53.683 4.03168 53.0399 4.49417Z" fill="#696969" fill-opacity="1.000000" fill-rule="nonzero"/>
	<path id="Vector" d="M82.8617 16.0863L82.8617 8.89145L80.4315 8.89145L80.4315 6.03235L82.8617 6.03235L82.8617 3.77966C82.8617 1.33215 84.3699 0 86.572 0C87.6271 0 88.5334 0.0785522 88.7963 0.113098L88.7963 2.67056L87.2691 2.67056C86.0714 2.67056 85.8401 3.23611 85.8401 4.06241L85.8401 6.03235L88.5428 6.03235L88.1721 8.89145L85.8401 8.89145L85.8401 16.0863L82.8617 16.0863Z" fill="#696969" fill-opacity="1.000000" fill-rule="nonzero"/>
	<path id="Vector" d="M121.029 1.28699C117.763 1.28699 114.534 3.31516 114.534 6.5976C114.534 8.68509 115.795 9.87115 116.559 9.87115C116.874 9.87115 117.056 9.05276 117.056 8.82147C117.056 8.54572 116.301 7.95862 116.301 6.8111C116.301 4.42709 118.25 2.73697 120.771 2.73697C122.94 2.73697 124.544 3.88449 124.544 5.99271C124.544 7.56723 123.866 10.5205 121.669 10.5205C120.876 10.5205 120.198 9.98679 120.198 9.22177C120.198 8.10095 121.039 7.01569 121.039 5.85928C121.039 3.89633 118.049 4.25217 118.049 6.6243C118.049 7.12244 118.116 7.67395 118.355 8.12762C117.916 9.88895 117.018 12.5131 117.018 14.3278C117.018 14.8882 117.104 15.4398 117.161 16.0002C117.269 16.1128 117.215 16.101 117.381 16.0446C118.985 13.9987 118.928 13.5984 119.654 10.9208C120.046 11.6147 121.058 11.9883 121.86 11.9883C125.241 11.9883 126.76 8.91934 126.76 6.15283C126.76 3.2084 124.028 1.28699 121.029 1.28699Z" fill="#696969" fill-opacity="1.000000" fill-rule="nonzero"/>
</svg>
