<svg width="298.278320" height="297.888000" viewBox="0 0 298.278 297.888" fill="none" xmlns="http://www.w3.org/2000/svg" xmlns:xlink="http://www.w3.org/1999/xlink">
	<desc>
			Created with Pixso.
	</desc>
	<defs>
		<clipPath id="clip1_137">
			<rect id="red_cartoon 6" width="214.000000" height="208.000000" transform="matrix(-0.738886 0.673831 0.673831 0.738886 158.122 0)" fill="white" fill-opacity="0"/>
		</clipPath>
	</defs>
	<rect id="red_cartoon 6" width="214.000000" height="208.000000" transform="matrix(-0.738886 0.673831 0.673831 0.738886 158.122 0)" fill="#FFFFFF" fill-opacity="0"/>
	<g clip-path="url(#clip1_137)">
		<path id="Vector" d="M69.7451 221.198C108.448 263.637 175.22 265.761 218.884 225.942C262.548 186.122 266.57 119.438 227.867 76.9977C189.163 34.5579 122.391 32.4338 78.7274 72.2535C35.0634 112.073 31.0418 178.758 69.7451 221.198Z" fill="#F472B7" fill-opacity="1.000000" fill-rule="evenodd"/>
		<path id="Vector" d="M104.344 129.984C106.961 132.853 108.006 129.479 110.957 126.787C113.909 124.095 117.654 123.11 115.033 120.236C112.412 117.362 107.903 117.223 104.952 119.915C101.995 122.602 101.723 127.11 104.344 129.984Z" fill="#FFFFFF" fill-opacity="1.000000" fill-rule="nonzero"/>
		<path id="Vector" d="M83.9197 148.61C86.536 151.479 87.5812 148.105 90.5328 145.413C93.4844 142.721 97.2297 141.736 94.6088 138.862C91.9879 135.988 87.4786 135.85 84.527 138.541C81.5707 141.228 81.2988 145.736 83.9197 148.61Z" fill="#FFFFFF" fill-opacity="1.000000" fill-rule="nonzero"/>
		<path id="Vector" d="M101.157 157.316C106.268 162.92 115.087 163.201 120.854 157.942C126.62 152.684 127.151 143.876 122.04 138.272C116.929 132.667 117.72 142.925 111.954 148.183C106.187 153.442 96.0461 151.711 101.157 157.316Z" fill="#FFFFFF" fill-opacity="1.000000" fill-rule="nonzero"/>
	</g>
</svg>
